<svg xmlns="http://www.w3.org/2000/svg" width="24" height="24" viewBox="0 0 24 24" class="icon_svg"><path d="M21.318 16.77l-3.952-2.277a.602.602 0 0 0-.66.117l-2.148 2.288a1.16 1.16 0 0 1-.704.314s-1.47.04-4.25-2.692c-2.78-2.733-2.79-4.23-2.79-4.23a1.194 1.194 0 0 1 .285-.725l1.975-2.113a.66.66 0 0 0 .11-.683L6.963 2.68c-.1-.21-.31-.244-.468-.078L2.845 6.46a1.47 1.47 0 0 0-.336.72s-.465 3.97 5.092 9.43c5.556 5.464 9.452 4.87 9.452 4.87.226-.033.54-.197.7-.364l3.645-3.858c.16-.166.12-.386-.084-.487z"></path></svg>
