<svg xmlns="http://www.w3.org/2000/svg" width="61" height="61" viewBox="0 0 61 61">
  <g fill="none" fill-rule="evenodd" stroke="#ffffff" stroke-linecap="round" stroke-linejoin="round" stroke-width="2" transform="translate(1 1.3)">
    <path d="M27.1251352 3.37276352L25.4053365 6.94834745 25.4053365 53.2876436C24.0618281 53.5992903 23.221113 54.0934703 22.8831913 54.7701837 22.5452696 55.4468972 22.3763088 56.665198 22.3763088 58.4250864L47.8331307 58.4250864M40.4212751 3.37276352L42.3229982 7.0188203C42.3229982 16.7764398 42.3229982 22.2653183 42.3229982 23.4854557 42.3229982 25.3156619 44.8164323 27.8573829 50.5993827 33.7494357 56.3823331 39.6414886 58.5168776 45.8167378 58.5168776 50.8438016 58.5168776 54.1951774 58.5168776 56.7222724 58.5168776 58.4250864L50.5993827 58.4250864"/>
    <path d="M31.4046647 34.4250864L31.4046647 53.3411508C30.0506565 53.6778545 29.1631336 54.2153623 28.7420958 54.9536742 28.321058 55.6919861 28.1661621 56.8548657 28.277408 58.4423131M47.3842544 38.4048204C44.5844809 41.0849977 43.1845941 44.1346453 43.1845941 47.5537632 43.1845941 49.5447519 43.1845941 51.4738811 43.1845941 53.3411508 40.7518272 53.0766601 39.1409569 53.3135707 38.3519833 54.0518826 37.5630096 54.7901946 37.2205136 56.2536714 37.3244952 58.4423131M50.5168776 33.4092289C51.205991 31.5038927 51.5505477 29.3216769 51.5505477 26.8625814 51.5505477 24.4034859 50.595329 21.4281128 48.6848915 17.9364622 49.5906706 17.3169303 50.5458893 17.0071644 51.5505477 17.0071644 53.0575352 17.0071644 54.0415375 17.7658535 54.5168776 18.5066103 54.8337709 19.0004482 55.0522714 19.8504191 55.1723791 21.0565231 56.1704455 21.8205193 56.8936609 22.7486439 57.3420255 23.8408971 57.79039 24.9331502 57.79039 26.4187977 57.3420255 28.2978395 58.1252602 29.4806655 58.5168776 30.8100654 58.5168776 32.2860392 58.5168776 33.7620131 58.1252602 35.6316039 57.3420255 37.8948118"/>
    <polyline points="25.262 12.209 22.376 12.209 19.319 5.241 22.831 2.95"/>
    <polyline points="25.262 1.571 28.277 0 39.889 0 48.327 5.241 45.344 12.209 42.345 12.209"/>
    <path d="M28.8137999 14.1651387C30.7507972 14.1961969 31.9539718 14.1961969 33.7768703 12.208837 35.6541677 14.1961969 35.6541677 14.1651387 38.4523528 14.1651387M32.4826295 8.1997004C32.2343054 8.1997004 31.8248827 8.68873395 31.8248827 9.20793406 31.8248827 9.72713417 31.8248827 10.063659 31.8248827 10.2713055 31.8248827 10.478952 32.0791573 11.1380915 32.7579486 11.1380915 33.4367399 11.1380915 34.2606651 11.1380915 34.7216104 11.1380915 35.1825557 11.1380915 35.4412701 10.8737151 35.4412701 10.2713055 35.4412701 9.66889594 35.4412701 9.47242985 35.4412701 8.91108221 35.4412701 8.34973457 34.8797107 8.1997004 34.490267 8.1997004 34.1008232 8.1997004 32.7309537 8.1997004 32.4826295 8.1997004z"/>
    <line x1="37.336" x2="37.336" y1="5.241" y2="7.018"/>
    <line x1="29.814" x2="29.814" y1="5.241" y2="7.018"/>
    <line x1="37.306" x2="37.306" y1="34.425" y2="58.425"/>
    <line x1="25.785" x2="41.843" y1="22.286" y2="22.286"/>
    <line x1="25.785" x2="41.843" y1="18.195" y2="18.195"/>
    <path d="M7.24709154,44.1588335 C9.22858535,45.8555796 10.2193323,48.062337 10.2193323,50.7791058 C10.2193323,52.3611092 10.2193323,53.4173904 10.2193323,53.9479494 C12.5529792,53.7377899 14.0982167,53.9260348 14.8550447,54.512684 C15.6118726,55.0993332 15.9404141,56.2621852 15.8406691,58.00124"/>
    <path d="M21.7535375,58.4250864 L0.0852622986,58.4250864 C0.0852622986,44.2198656 0.0852622986,35.9461008 0.0852622986,33.6037918 C0.0852622986,30.0903284 4.0852623,28.671199 4.0852623,24.4250864 C4.0852623,20.1789737 -0.00584360452,18.9210077 -1.13686838e-13,17.2536178 C0.0061257327,15.5862278 0.388114855,14.9997479 2.17492242,14.9997479 C3.96172999,14.9997479 6.7749234,17.8275294 7.653224,20.1948954 C8.5315246,22.5622613 8.55136141,25.5047491 7.63860741,27.4449862 C7.03010475,28.7384776 5.84565638,30.6341974 4.0852623,33.1321457"/>
    <path d="M0.0912469672,48.5804975 C0.0912469672,34.4250864 12.1987232,33.5404534 12.1987232,30.1587814 C12.178417,28.207507 12.178417,23.4851068 12.1987232,15.991581 C14.1395979,16.3984095 15.3593873,17.4809073 15.8580916,19.2390746 C17.6440266,19.2390746 19.406805,19.2390746 21.1464269,19.2390746 L22.3763088,17.6771973"/>
    <line x1="15.236" x2="15.236" y1="42.059" y2="54.755"/>
    <line x1="20.224" x2="20.224" y1="42.059" y2="58.001"/>
    <line x1="16.205" x2="16.205" y1="23.219" y2="24.996"/>
    <line x1="21.217" x2="21.217" y1="23.219" y2="24.996"/>
  </g>
</svg>
