<svg xmlns="http://www.w3.org/2000/svg" width="57" height="57" viewBox="0 0 57 57">
  <g fill="none" fill-rule="evenodd">
    <rect width="57" height="57" fill="#030093" rx="7"/>
    <g stroke="#FFF" stroke-width="2" transform="translate(4.4 4.4)">
      <circle cx="4.191" cy="22.319" r="4.191"/>
      <circle cx="43.932" cy="9.601" r="4.191"/>
      <circle cx="41.655" cy="36.555" r="3.467"/>
      <circle cx="18.576" cy="44.73" r="3.467"/>
      <circle cx="20.129" cy="5.744" r="5.744"/>
      <line x1="6.882" x2="15.989" y1="18.91" y2="9.544"/>
      <line x1="16.351" x2="6.173" y1="41.729" y2="26.2"/>
      <line x1="38.864" x2="22.043" y1="38.21" y2="43.902"/>
      <line x1="39.741" x2="25.872" y1="8.616" y2="6.387"/>
      <line x1="43.429" x2="41.913" y1="13.793" y2="33.088"/>
      <line x1="8.383" x2="14.385" y1="23.196" y2="24.113"/>
      <line x1="34.113" x2="40.594" y1="18.128" y2="12.225"/>
      <line x1="38.864" x2="35.235" y1="34.379" y2="31.683"/>
      <g transform="translate(14.752 14.255)">
        <circle cx="11.13" cy="11.13" r="11.13"/>
        <g transform="translate(2.102 5.21)">
          <path d="M5.94107479,8.31913063 L-1.1125566e-14,12.2272291 C2.20173105,15.4663137 5.49105349,17.0739181 9.8679673,17.0500423 C15.0235629,17.0219189 17.7410744,12.555094 17.7410744,12.555094 C17.7410744,12.555094 15.9376392,11.1931024 12.3307689,8.46911924"/>
          <rect width="7.483" height="9.785" x="5.462" y=".238" rx="3.742"/>
        </g>
      </g>
    </g>
  </g>
</svg>
