<svg xmlns="http://www.w3.org/2000/svg" width="57" height="57" viewBox="0 0 57 57">
  <g fill="none" fill-rule="evenodd" stroke="#000" stroke-width="2" transform="translate(1 1)">
    <circle cx="4.78" cy="25.454" r="4.78"/>
    <circle cx="50.103" cy="10.95" r="4.78"/>
    <circle cx="47.505" cy="41.689" r="3.954"/>
    <circle cx="21.186" cy="51.013" r="3.954"/>
    <circle cx="22.956" cy="6.55" r="6.55"/>
    <line x1="7.849" x2="18.235" y1="21.566" y2="10.884"/>
    <line x1="18.648" x2="7.04" y1="47.59" y2="29.88"/>
    <line x1="44.323" x2="25.139" y1="43.577" y2="50.069"/>
    <line x1="46.03" x2="29.506" y1="9.547" y2="7.285"/>
    <line x1="49.742" x2="47.8" y1="15.73" y2="37.735"/>
    <line x1="9.56" x2="14.635" y1="26.454" y2="27.349"/>
    <line x1="39.617" x2="46.343" y1="19.618" y2="13.789"/>
    <line x1="44.323" x2="40.719" y1="39.207" y2="36.791"/>
    <g transform="translate(15.282 14.658)">
      <circle cx="14.216" cy="14.216" r="14.216" fill="#838383" fill-opacity=".5"/>
      <g fill="#FFF" transform="translate(2.685 6.654)">
        <path d="M22.6609442,16.0368125 C22.6609442,16.0368125 19.0456931,13.3065 11.8151908,7.84587497 L-1.42108547e-14,15.6180258 C2.81230457,19.7553577 7.01380616,21.8087753 12.6045048,21.7782784 C19.1898255,21.7423559 22.6609442,16.0368125 22.6609442,16.0368125 Z"/>
        <rect width="9.558" height="12.499" x="6.977" y=".304" rx="4.779"/>
      </g>
    </g>
  </g>
</svg>
